<svg width="16" height="10" viewBox="0 0 16 10" fill="none" xmlns="http://www.w3.org/2000/svg">
<path d="M7.76998 0C4.97831 0 2.77692 1.75694 0.144977 4.62847C-0.0459951 4.84028 -0.0494674 5.15625 0.141505 5.36805C2.39498 7.85764 4.38109 10 7.76998 10C11.1172 10 13.6276 7.30208 15.4123 5.34722C15.5964 5.14583 15.6068 4.84028 15.4297 4.62847C13.6103 2.42361 11.0929 0 7.76998 0ZM7.92275 8.12153C6.08248 8.20486 4.56859 6.69097 4.65539 4.85417C4.72831 3.25 6.02692 1.95139 7.63109 1.87847C9.47137 1.79514 10.9853 3.30903 10.8984 5.14583C10.8255 6.75 9.52692 8.04861 7.92275 8.12153Z" fill="#53687C"/>
<path d="M7.77693 3.36805C7.77693 3.15972 7.81512 2.9618 7.88457 2.78124C7.84985 2.78124 7.81512 2.77777 7.77693 2.77777C6.49568 2.77777 5.46443 3.86805 5.56165 5.17013C5.64499 6.25694 6.51999 7.13194 7.60679 7.21527C8.90887 7.31249 9.99915 6.28124 9.99915 4.99999C9.99915 4.95485 9.99568 4.90972 9.99568 4.86458C9.80123 4.95138 9.58943 4.99999 9.36374 4.99999C8.48874 4.99999 7.77693 4.26735 7.77693 3.36805Z" fill="#53687C"/>
</svg>
