<svg fill="none" height="39" viewBox="0 0 40 39" width="40" xmlns="http://www.w3.org/2000/svg"><path d="M38.2026 25.3304C37.9346 26.1299 37.6309 26.8938 37.2735 27.64C36.6839 28.8836 35.9514 30.0384 35.1116 31.1221L35.0938 31.0866V31.0688L34.8258 30.5892L34.8079 30.5714V30.5536L34.1468 29.3455L32.1994 25.8278L32.0564 25.5791L31.3775 24.371L31.2703 24.1756L31.2167 24.069L29.0905 20.2315L26.6964 15.8966L25.7495 14.1911V14.1733L25.0884 12.9652L25.0705 12.9474L22.3905 8.1506L22.3726 8.13283V8.11507L21.7116 6.90697L19.7641 3.38929L18.9601 1.93247L18.7814 1.61268L18.031 0.26246C18.6385 0.209162 19.2638 0.17363 19.8891 0.17363C20.6574 0.17363 21.4078 0.209162 22.1404 0.297992C22.855 0.386823 23.5518 0.493419 24.2308 0.653314C24.2486 0.653314 24.2486 0.653314 24.2665 0.653314L31.2524 13.0007L36.3802 22.0614L38.1847 25.2593L38.2026 25.3304Z" fill="#F2F2F2"></path><path d="M33.1999 33.1295H26.0353L25.8745 32.8452L24.1771 29.7539L24.0878 29.5941L21.1934 24.3175L17.5307 17.673L17.3341 17.2999L17.2984 17.2466L13.2605 9.94477L13.2248 9.89147L9.52637 3.17589C9.70503 3.0693 9.8837 2.9627 10.0624 2.8561C10.1338 2.8028 10.2232 2.76727 10.2946 2.71397C10.4197 2.64291 10.5626 2.57185 10.6877 2.50078C10.7413 2.46525 10.8128 2.42972 10.8664 2.41195C10.92 2.37642 10.9914 2.34089 11.0629 2.32312C11.0808 2.32312 11.0808 2.30535 11.0986 2.30535C11.188 2.25206 11.2773 2.21652 11.3666 2.18099C11.4738 2.12769 11.5989 2.0744 11.7061 2.0211C11.8312 1.9678 11.9741 1.89673 12.1171 1.84344C12.26 1.79014 12.3851 1.71907 12.528 1.66578C12.7424 1.57695 12.9568 1.48811 13.1712 1.41705C13.8144 1.18609 14.4755 0.972898 15.1544 0.813004L19.1208 7.81284L19.1923 7.9372L19.3174 8.16816L23.0694 14.8482L23.8555 16.234L23.8734 16.2517L23.9091 16.3228L24.4451 17.2822H24.4273L29.162 25.8276L33.1999 33.1295Z" fill="url(#paint0_linear_11_5526)"></path><path d="M33.2178 33.165C32.1458 34.1777 30.9666 35.0838 29.6802 35.8299C26.8036 37.5177 23.4447 38.4949 19.8713 38.4949C14.1361 38.4949 8.97258 36.0076 5.43496 32.0458C4.82749 31.3707 4.25575 30.6423 3.75548 29.8605C2.20107 27.5332 1.1648 24.8505 0.753863 21.9724C0.628796 21.1196 0.575195 20.2313 0.575195 19.343C0.575195 17.8329 0.753862 16.3583 1.07546 14.9548C1.3792 13.6756 1.808 12.4676 2.34401 11.295C2.52267 10.9219 2.71921 10.5488 2.91574 10.1757C3.04081 9.94477 3.18375 9.69604 3.32668 9.46509C3.39815 9.34072 3.48748 9.21636 3.55895 9.092C3.80908 8.70114 4.07708 8.31029 4.36295 7.9372C4.70242 7.49305 5.05976 7.0489 5.43496 6.64028C5.48856 6.58698 5.54216 6.53368 5.59576 6.46262C5.70296 6.33825 5.82803 6.21389 5.93523 6.08953C6.04243 5.98293 6.13176 5.87634 6.23896 5.78751C6.29256 5.73421 6.34616 5.68091 6.39977 5.62761C6.47123 5.55655 6.5427 5.48548 6.61417 5.41442C6.72137 5.30782 6.82857 5.21899 6.93577 5.13016C7.25737 4.8459 7.57897 4.57941 7.91844 4.31292C8.04351 4.22409 8.15071 4.13526 8.27578 4.04643C8.68671 3.74441 9.11552 3.44238 9.54432 3.17589C9.72299 3.0693 9.90166 2.9627 10.0803 2.8561C10.1518 2.8028 10.2411 2.76727 10.3126 2.71397C10.4377 2.64291 10.5806 2.57184 10.7057 2.50078C10.7593 2.46525 10.8307 2.42972 10.8843 2.39418C10.9379 2.35865 11.0094 2.32312 11.0809 2.30535C11.0987 2.30535 11.0987 2.28759 11.1166 2.28759C11.2059 2.23429 11.2953 2.19876 11.3846 2.16323C11.4918 2.10993 11.6169 2.05663 11.7241 2.00333C11.8491 1.93227 11.9921 1.87897 12.135 1.82567C12.2779 1.77237 12.403 1.70131 12.5459 1.64801C12.7603 1.55918 12.9747 1.47035 13.1891 1.39928C13.8323 1.16832 14.4934 0.955132 15.1724 0.795237C15.2081 0.777471 15.2438 0.777471 15.2796 0.759705L19.1924 7.81284L19.2638 7.9372C19.246 7.9372 19.2281 7.9372 19.2102 7.9372C17.6558 8.00827 16.1908 8.38135 14.8686 9.02093C14.3505 9.26966 13.8681 9.53615 13.4035 9.85594C13.3678 9.8737 13.3499 9.89147 13.3142 9.927C13.3142 9.927 13.2963 9.927 13.2963 9.94477C12.7603 10.3179 12.2601 10.7265 11.8134 11.1706C11.4025 11.5792 11.0094 12.0234 10.6521 12.4853C10.4734 12.7163 10.3126 12.9472 10.1697 13.1782C9.90166 13.5868 9.66939 14.031 9.45499 14.4751C9.41925 14.5284 9.40139 14.5995 9.36565 14.6528C9.24058 14.937 9.11552 15.2213 9.02618 15.5233C8.99045 15.6121 8.97258 15.701 8.93685 15.8076C8.90111 15.8964 8.88325 15.9852 8.86538 16.0563C8.75818 16.4294 8.66885 16.8202 8.59738 17.2289C8.59738 17.2644 8.57951 17.2999 8.57951 17.3355C8.47231 17.9395 8.43658 18.5613 8.43658 19.1831C8.43658 25.4723 13.5643 30.5712 19.8892 30.5712C21.4079 30.5712 22.8729 30.2692 24.1951 29.7362L24.1057 29.5763C24.2129 29.5408 24.3201 29.4875 24.4273 29.4342C24.606 29.3631 24.7668 29.2743 24.9276 29.1854C25.0705 29.1144 25.2135 29.0433 25.3564 28.9545C25.41 28.9189 25.4815 28.8834 25.5351 28.8479C25.6244 28.7946 25.6959 28.759 25.7852 28.7057C25.9818 28.5814 26.1962 28.4393 26.3748 28.2971V24.282H21.1935L17.5308 17.6375L17.3342 17.2644H24.4452L29.1799 25.8099L33.2178 33.094V33.165Z" fill="white"></path><path d="M38.149 25.2947C38.1133 25.3835 38.0954 25.4723 38.0597 25.5612C37.8274 26.254 37.5416 26.9291 37.2378 27.5687C36.7912 28.4926 36.273 29.3809 35.7013 30.2159C35.5048 30.5001 35.2904 30.7844 35.076 31.0509L34.808 30.5712L34.7901 30.5534V30.5357L34.129 29.3276L32.1815 25.8099L32.0386 25.5612L31.3597 24.3531L31.2525 24.1576L31.1989 24.051L29.0727 20.2136L26.6786 15.8786L25.7316 14.1731V14.1553L25.0706 12.9472L25.0527 12.9295L22.3905 8.1504L22.3727 8.13263V8.11486L21.7116 6.90677L19.7641 3.38909L18.9601 1.93227L18.7815 1.61248L18.0311 0.262256L18.0132 0.226724C18.1383 0.208958 18.2633 0.208958 18.3884 0.191192C18.5135 0.173426 18.6385 0.173426 18.7815 0.173426C18.8887 0.173426 18.9959 0.15566 19.1031 0.15566C19.246 0.15566 19.3889 0.137894 19.514 0.137894C19.5497 0.137894 19.5855 0.137894 19.6212 0.137894C19.6927 0.137894 19.782 0.137894 19.8535 0.137894H19.8713C19.9607 0.137894 20.0679 0.137894 20.1572 0.137894C20.2465 0.137894 20.3359 0.137894 20.4252 0.137894C20.4431 0.137894 20.4431 0.137894 20.4609 0.137894C20.5324 0.137894 20.6217 0.137894 20.6932 0.15566C20.7647 0.15566 20.8361 0.15566 20.9076 0.173426C20.9969 0.173426 21.1041 0.191192 21.1935 0.191192C21.2292 0.191192 21.2471 0.191192 21.2828 0.191192C21.3543 0.191192 21.4257 0.208958 21.4972 0.208958C21.5865 0.208958 21.6937 0.226724 21.7831 0.226724C21.8009 0.226724 21.8188 0.226724 21.8367 0.226724C21.9439 0.24449 22.0332 0.24449 22.1404 0.262256C22.8551 0.351087 23.5519 0.475449 24.2308 0.635344L24.2487 0.65311L24.2844 0.706408L24.3202 0.759706L31.2525 13.0361L38.149 25.2947Z" fill="url(#paint1_linear_11_5526)"></path><path d="M38.1491 25.2947C38.1133 25.3835 38.0955 25.4723 38.0597 25.5612H32.0208L31.3418 24.3531L31.2346 24.1576V13.0894L38.1491 25.2947Z" fill="white"></path><path d="M31.2524 13.0183L36.3623 22.079H36.3266L31.2524 20.6222V13.0183Z" fill="white"></path><path d="M23.9092 16.3228L24.4452 17.2822L24.1772 16.7847L23.9092 16.3228Z" fill="black"></path><path d="M39.1318 19.3075C39.1318 19.4496 39.1318 19.6095 39.1318 19.7516C39.1318 19.8938 39.1318 20.0537 39.1139 20.1958C39.1139 20.2846 39.096 20.3912 39.096 20.4801C39.096 20.5689 39.0782 20.6399 39.0782 20.7288C39.0782 20.7821 39.0782 20.8531 39.0603 20.9064C39.0603 20.9953 39.0424 21.0663 39.0424 21.1552C39.0424 21.244 39.0246 21.3506 39.0067 21.4394C39.0067 21.475 39.0067 21.5105 38.9888 21.546C38.971 21.6704 38.9531 21.777 38.9352 21.9013C38.9352 21.9191 38.9352 21.9546 38.9174 21.9724C38.8995 22.0968 38.8816 22.2034 38.8638 22.3277C38.8638 22.3633 38.8459 22.4166 38.8459 22.4521C38.828 22.5587 38.8102 22.6653 38.7923 22.7719V22.7896C38.6315 23.6424 38.4171 24.4774 38.1491 25.2947L36.3446 22.0968L31.2168 13.0361V3.851C31.3597 3.95759 31.5205 4.06419 31.6635 4.18855C31.9493 4.41951 32.2352 4.65047 32.5211 4.8992C32.664 5.02356 32.7891 5.14792 32.932 5.27228C33.0749 5.39665 33.2 5.52101 33.3251 5.64537C33.4501 5.76974 33.5931 5.91186 33.7181 6.03623C33.8432 6.16059 33.9683 6.30272 34.0933 6.44485C34.2184 6.58698 34.3435 6.71134 34.4507 6.85347C34.5579 6.97783 34.6651 7.11996 34.7723 7.24432C34.7902 7.27985 34.8259 7.29762 34.8438 7.33315C34.951 7.45751 35.0403 7.58188 35.1475 7.70624C35.2547 7.84837 35.3798 8.00826 35.487 8.15039C35.5942 8.29252 35.7014 8.45241 35.8086 8.61231C35.9158 8.7722 36.0051 8.91433 36.1123 9.07423C36.1123 9.07423 36.1123 9.09199 36.1302 9.09199C36.2195 9.21635 36.291 9.35848 36.3803 9.48285C36.416 9.53615 36.4518 9.58944 36.4696 9.64274C36.5411 9.74934 36.6126 9.8737 36.6662 9.99806C36.684 10.0158 36.684 10.0336 36.7019 10.0691C36.7734 10.2113 36.8627 10.3534 36.9342 10.4955C36.9699 10.5488 37.0056 10.6199 37.0235 10.6732C37.0771 10.762 37.1128 10.8508 37.1486 10.9397C37.2022 11.064 37.2736 11.1884 37.3272 11.295C37.363 11.3661 37.3987 11.4549 37.4344 11.5259C37.4702 11.6148 37.5059 11.7036 37.5416 11.7747C37.5774 11.8635 37.6131 11.9346 37.6488 12.0234C37.7918 12.3787 37.9347 12.734 38.0598 13.0894C38.0776 13.1604 38.1134 13.2137 38.1312 13.2848C38.167 13.3914 38.2027 13.5157 38.2384 13.6223C38.292 13.8 38.3456 13.9777 38.3992 14.1553C38.435 14.2797 38.4707 14.4041 38.5064 14.5284C38.5422 14.635 38.56 14.7594 38.5958 14.866C38.6315 14.9903 38.6494 15.1325 38.6851 15.2746C38.703 15.3457 38.7208 15.4345 38.7387 15.5055C38.7566 15.6121 38.7744 15.701 38.7923 15.8076C38.7923 15.8253 38.7923 15.8253 38.7923 15.8431C38.8102 15.9142 38.828 15.9852 38.828 16.0563C38.8459 16.1807 38.8638 16.2873 38.8816 16.4116C38.8995 16.536 38.9174 16.6781 38.9352 16.8025C38.9352 16.8558 38.9531 16.9268 38.9531 16.9801C38.971 17.1045 38.9888 17.2466 38.9888 17.371C39.0067 17.5309 39.0246 17.6908 39.0246 17.8507C39.0424 17.9928 39.0424 18.1172 39.0424 18.2593C39.0424 18.3126 39.0424 18.3837 39.0603 18.437C39.0603 18.5435 39.0782 18.6324 39.0782 18.739C39.0782 18.7923 39.0782 18.8633 39.0782 18.9344C39.1318 19.041 39.1318 19.1654 39.1318 19.3075Z" fill="url(#paint2_linear_11_5526)"></path><path d="M32.539 4.88143C32.2531 4.63271 31.9673 4.40175 31.6814 4.17079C31.9851 4.40175 32.271 4.63271 32.539 4.88143Z" fill="white"></path><path d="M24.1594 29.754C22.8194 30.2869 21.3722 30.589 19.8535 30.589C13.5286 30.589 8.40088 25.4901 8.40088 19.2009C8.40088 18.5791 8.45448 17.9573 8.54381 17.3532H14.2791L16.4231 21.2262L18.2097 24.4597H9.70515C10.527 26.0053 11.6884 27.32 13.0998 28.3327C13.6001 28.688 14.1361 29.0078 14.69 29.292C14.9223 29.3986 15.1367 29.5052 15.3689 29.5941C16.2444 29.9671 17.1913 30.2159 18.1561 30.358C18.4241 30.3935 18.6921 30.4291 18.978 30.4468C19.1924 30.4646 19.4068 30.4646 19.6391 30.4646C19.6748 30.4646 19.6927 30.4646 19.7284 30.4646C19.9607 30.4646 20.1751 30.4646 20.4074 30.4468C21.1042 30.4113 21.7831 30.3047 22.4442 30.1448C23.0159 30.0027 23.5519 29.825 24.0879 29.6118L24.1594 29.754Z" fill="url(#paint3_linear_11_5526)"></path><defs><linearGradient gradientUnits="userSpaceOnUse" id="paint0_linear_11_5526" x1="9.54025" x2="33.1952" y1="16.942" y2="16.942"><stop stop-color="#29ABE2"></stop><stop offset="0.0810946" stop-color="#289DD8"></stop><stop offset="1" stop-color="#1B0066"></stop></linearGradient><linearGradient gradientUnits="userSpaceOnUse" id="paint1_linear_11_5526" x1="18.0225" x2="38.1533" y1="15.6036" y2="15.6036"><stop stop-color="#8C8C8C"></stop><stop offset="0.0388935" stop-color="#9A9A9A"></stop><stop offset="0.1408" stop-color="#B9B9B9"></stop><stop offset="0.2526" stop-color="#D3D3D3"></stop><stop offset="0.3759" stop-color="#E7E7E7"></stop><stop offset="0.5173" stop-color="#F4F4F4"></stop><stop offset="0.6919" stop-color="#FDFDFD"></stop><stop offset="1" stop-color="white"></stop></linearGradient><linearGradient gradientUnits="userSpaceOnUse" id="paint2_linear_11_5526" x1="32.6421" x2="38.1874" y1="15.7536" y2="12.5339"><stop stop-color="#8C8C8C"></stop><stop offset="0.0388935" stop-color="#9A9A9A"></stop><stop offset="0.1408" stop-color="#B9B9B9"></stop><stop offset="0.2526" stop-color="#D3D3D3"></stop><stop offset="0.3759" stop-color="#E7E7E7"></stop><stop offset="0.5173" stop-color="#F4F4F4"></stop><stop offset="0.6919" stop-color="#FDFDFD"></stop><stop offset="1" stop-color="white"></stop></linearGradient><linearGradient gradientUnits="userSpaceOnUse" id="paint3_linear_11_5526" x1="8.39255" x2="24.165" y1="23.9628" y2="23.9628"><stop stop-color="#8C8C8C"></stop><stop offset="0.0388935" stop-color="#9A9A9A"></stop><stop offset="0.1408" stop-color="#B9B9B9"></stop><stop offset="0.2526" stop-color="#D3D3D3"></stop><stop offset="0.3759" stop-color="#E7E7E7"></stop><stop offset="0.5173" stop-color="#F4F4F4"></stop><stop offset="0.6919" stop-color="#FDFDFD"></stop><stop offset="1" stop-color="white"></stop></linearGradient></defs></svg>